<svg width="244" height="46" viewBox="0 0 244 46" fill="none" xmlns="http://www.w3.org/2000/svg">
<path fill-rule="evenodd" clip-rule="evenodd" d="M4.50126 27.8058V45.5628H0V23.1877L4.50126 27.8058ZM25.0784 26.8952V45.5628H29.5797V21.8218L25.0784 26.8952Z" fill="black"/>
<path fill-rule="evenodd" clip-rule="evenodd" d="M46.2022 0L14.8863 28.4242L0 13.334V19.8709L14.8863 34.9286L46.2022 0Z" fill="#FF0000"/>
<path d="M51.2824 36.5552H37.5214C37.5535 38.1813 38.068 39.6122 39.0647 40.8155C40.0614 42.0188 41.3796 42.6042 42.9551 42.6042C44.209 42.6042 45.2378 42.3115 46.0738 41.7261C46.9097 41.1408 47.6492 40.2627 48.3566 39.0593L51.2824 40.7505C50.4464 42.3115 49.2568 43.5474 47.7778 44.4255C46.2988 45.3036 44.6591 45.7589 42.8907 45.7589C40.19 45.7589 38.0358 44.8483 36.4282 43.027C34.8206 41.2058 34.0168 38.9293 34.0168 36.1649C34.0168 33.2379 34.7885 30.8963 36.2996 29.0751C37.8108 27.2539 39.9971 26.3433 42.8264 26.3433C45.5915 26.3433 47.6814 27.2539 49.1282 29.0426C50.575 30.8638 51.2824 33.1729 51.2824 36.0348V36.5552ZM37.7143 33.8884H47.81C47.6171 32.4899 47.0705 31.3842 46.2024 30.5386C45.3343 29.7255 44.209 29.3028 42.8586 29.3028C41.5082 29.3028 40.3829 29.7255 39.4505 30.6036C38.4859 31.4817 37.9072 32.555 37.7143 33.8884Z" fill="black"/>
<path d="M54.2399 11.2202H57.7123V29.2699H57.7766C58.291 28.2942 59.0305 27.5788 60.0272 27.0584C61.0239 26.5381 62.085 26.2779 63.2103 26.2779C65.5895 26.2779 67.2293 26.9934 68.1938 28.3918C69.1584 29.7903 69.6085 31.7416 69.6085 34.2132V45.1081H66.1361V34.636C66.1361 32.8473 65.8789 31.5139 65.3966 30.6683C64.8822 29.8228 63.8212 29.4 62.1814 29.4C61.4741 29.4 60.831 29.4976 60.2845 29.6602C59.7379 29.8553 59.3199 30.148 58.9984 30.5708C58.6769 30.9936 58.4518 31.3838 58.2589 31.7741C58.066 32.1644 57.9374 32.6847 57.8409 33.3677C57.7766 34.0506 57.7123 34.6035 57.7123 34.9938C57.7123 35.384 57.6802 35.9694 57.6802 36.7174V45.1081H54.2078V11.2202H54.2399Z" fill="black"/>
<path d="M78.1287 26.8312V29.7907H78.2573C78.7075 28.6849 79.3505 27.8394 80.2186 27.2215C81.0867 26.6035 82.0834 26.2783 83.2087 26.2783C84.1733 26.2783 85.1378 26.571 86.0702 27.1889L84.4948 30.3761C83.916 29.8883 83.2087 29.6281 82.3728 29.6281C81.4725 29.6281 80.733 29.8232 80.1221 30.181C79.5434 30.5712 79.0933 31.0916 78.8361 31.7745C78.5788 32.4575 78.3859 33.1405 78.2895 33.7909C78.193 34.4413 78.1609 35.2219 78.1609 36.0674V45.0435H74.6885V26.8312H78.1287Z" fill="black"/>
<path d="M104.912 26.8309V45.1082H101.439V42.2463H101.375C99.8315 44.5554 97.7738 45.7262 95.2338 45.7262C92.5974 45.7262 90.4753 44.783 88.9321 42.8642C87.3888 40.9454 86.585 38.6038 86.585 35.872C86.585 33.2702 87.3566 31.0262 88.9321 29.14C90.5075 27.2537 92.5652 26.3105 95.1052 26.3105C97.7095 26.3105 99.7994 27.5139 101.343 29.888H101.407V26.8309H104.912ZM95.7804 42.604C97.613 42.604 99.0277 41.9536 100.089 40.6853C101.118 39.4169 101.664 37.8233 101.664 35.9696C101.664 34.1158 101.15 32.5548 100.089 31.3189C99.0277 30.0506 97.613 29.4327 95.8125 29.4327C94.0763 29.4327 92.6938 30.0831 91.665 31.3515C90.6361 32.6198 90.0895 34.1809 90.0895 35.9696C90.0895 37.7908 90.6039 39.3519 91.6328 40.6527C92.6295 41.9536 94.012 42.604 95.7804 42.604Z" fill="black"/>
<path d="M112.885 26.8312V29.2703H112.949C113.464 28.2947 114.203 27.5792 115.2 27.0588C116.197 26.5385 117.258 26.2783 118.383 26.2783C120.762 26.2783 122.402 26.9938 123.367 28.3922C124.331 29.7907 124.781 31.742 124.781 34.2137V45.1085H121.309V34.6365C121.309 32.8478 121.052 31.5144 120.569 30.6688C120.055 29.8232 118.994 29.4004 117.354 29.4004C116.647 29.4004 116.004 29.498 115.457 29.6606C114.911 29.8557 114.493 30.1484 114.171 30.5712C113.85 30.994 113.625 31.3843 113.432 31.7745C113.239 32.1648 113.11 32.6851 113.014 33.3681C112.949 34.0511 112.885 34.6039 112.885 34.9942C112.885 35.3845 112.853 35.9699 112.853 36.7179V45.1085H109.381V26.8312H112.885Z" fill="black"/>
<path d="M156.966 19.4809L154.072 21.2371C152.979 19.3833 151.435 18.4727 149.41 18.4727C148.188 18.4727 147.063 18.863 146.066 19.6435C145.069 20.424 144.555 21.4322 144.555 22.6355C144.555 24.3917 145.905 25.8227 148.606 26.8634L150.696 27.6764C153.011 28.587 154.779 29.7253 156.033 31.0587C157.287 32.4246 157.898 34.2459 157.898 36.5224C157.898 39.1892 156.998 41.3682 155.229 43.0918C153.429 44.8155 151.243 45.6936 148.606 45.6936C146.259 45.6936 144.266 44.9131 142.594 43.3845C140.922 41.8235 139.925 39.8722 139.636 37.4655L143.301 36.685C143.269 38.2786 143.815 39.612 144.909 40.6527C146.002 41.7259 147.352 42.2463 148.928 42.2463C150.471 42.2463 151.757 41.6934 152.754 40.5551C153.783 39.4169 154.265 38.0835 154.265 36.5224C154.265 35.0914 153.815 33.9532 152.947 33.1401C152.046 32.3271 150.825 31.5791 149.249 30.9286L147.256 30.0831C145.262 29.2375 143.719 28.2293 142.594 27.1236C141.468 26.0178 140.922 24.5218 140.922 22.6355C140.922 20.359 141.758 18.5052 143.462 17.1068C145.166 15.7084 147.159 15.0254 149.474 15.0254C152.818 15.0254 155.294 16.5214 156.966 19.4809Z" fill="black"/>
<path d="M161.466 11.2202H164.938V29.2699H165.002C165.517 28.2942 166.256 27.5788 167.253 27.0584C168.25 26.5381 169.311 26.2779 170.436 26.2779C172.815 26.2779 174.455 26.9934 175.42 28.3918C176.384 29.7903 176.834 31.7416 176.834 34.2132V45.1081H173.362V34.636C173.362 32.8473 173.105 31.5139 172.622 30.6683C172.108 29.8228 171.047 29.4 169.407 29.4C168.7 29.4 168.057 29.4976 167.51 29.6602C166.964 29.8553 166.546 30.148 166.224 30.5708C165.903 30.9936 165.678 31.3838 165.485 31.7741C165.292 32.1644 165.163 32.6847 165.067 33.3677C165.002 34.0506 164.938 34.6035 164.938 34.9938C164.938 35.384 164.906 35.9694 164.906 36.7174V45.1081H161.434V11.2202H161.466Z" fill="black"/>
<path d="M182.462 16.7487C182.912 16.2609 183.491 16.0332 184.166 16.0332C184.841 16.0332 185.388 16.2609 185.87 16.7487C186.32 17.2365 186.577 17.8219 186.577 18.4724C186.577 19.1228 186.352 19.6757 185.87 20.1635C185.42 20.6188 184.841 20.879 184.166 20.879C183.491 20.879 182.944 20.6513 182.462 20.1635C182.012 19.7082 181.754 19.1228 181.754 18.4724C181.754 17.7894 181.979 17.204 182.462 16.7487ZM185.902 26.8305V45.1078H182.43V26.8305H185.902Z" fill="black"/>
<path d="M195.161 26.8312V29.7907H195.29C195.74 28.6849 196.383 27.8394 197.251 27.2215C198.119 26.6035 199.116 26.2783 200.241 26.2783C201.206 26.2783 202.171 26.571 203.103 27.1889L201.527 30.3761C200.949 29.8883 200.241 29.6281 199.405 29.6281C198.505 29.6281 197.766 29.8232 197.155 30.181C196.576 30.5712 196.126 31.0916 195.869 31.7745C195.612 32.4575 195.419 33.1405 195.322 33.7909C195.226 34.4413 195.194 35.2219 195.194 36.0674V45.0435H191.721V26.8312H195.161Z" fill="black"/>
<path d="M221.912 26.8309V45.1082H218.44V42.2463H218.375C216.832 44.5554 214.774 45.7262 212.234 45.7262C209.598 45.7262 207.476 44.783 205.933 42.8642C204.389 40.9454 203.585 38.6038 203.585 35.872C203.585 33.2702 204.357 31.0262 205.933 29.14C207.508 27.2537 209.566 26.3105 212.106 26.3105C214.71 26.3105 216.8 27.5139 218.343 29.888H218.407V26.8309H221.912ZM212.781 42.604C214.614 42.604 216.028 41.9536 217.089 40.6853C218.118 39.4169 218.665 37.8233 218.665 35.9696C218.665 34.1158 218.15 32.5548 217.089 31.3189C216.028 30.0506 214.614 29.4327 212.813 29.4327C211.077 29.4327 209.694 30.0831 208.665 31.3515C207.637 32.6198 207.09 34.1809 207.09 35.9696C207.09 37.7908 207.604 39.3519 208.633 40.6527C209.63 41.9536 211.045 42.604 212.781 42.604Z" fill="black"/>
<path d="M230.882 41.8232H242.618V45.1079H224.13L236.348 30.1153H226.188V26.8306H243.1L230.882 41.8232Z" fill="black"/>
</svg>
