<svg width="191" height="36" viewBox="0 0 191 36" fill="none" xmlns="http://www.w3.org/2000/svg">
<path fill-rule="evenodd" clip-rule="evenodd" d="M3.53037 21.8086V35.7355H0V18.1865L3.53037 21.8086ZM19.6692 21.0944V35.7355H23.1996V17.1152L19.6692 21.0944Z" fill="#F2A5B4"/>
<path fill-rule="evenodd" clip-rule="evenodd" d="M36.2368 0L11.6755 22.2933L0 10.458V15.5849L11.6755 27.3948L36.2368 0Z" fill="#FF0000"/>
<path d="M40.2211 28.6699H29.4282C29.4534 29.9453 29.8569 31.0676 30.6386 32.0114C31.4204 32.9551 32.4542 33.4143 33.6899 33.4143C34.6733 33.4143 35.4803 33.1847 36.1359 32.7256C36.7916 32.2664 37.3716 31.5778 37.9263 30.634L40.2211 31.9604C39.5654 33.1847 38.6324 34.154 37.4724 34.8427C36.3124 35.5314 35.0264 35.8885 33.6394 35.8885C31.5212 35.8885 29.8317 35.1743 28.5708 33.7459C27.31 32.3175 26.6796 30.532 26.6796 28.3638C26.6796 26.0682 27.2848 24.2317 28.47 22.8033C29.6552 21.3748 31.3699 20.6606 33.589 20.6606C35.7577 20.6606 37.3968 21.3748 38.5315 22.7777C39.6663 24.2062 40.2211 26.0172 40.2211 28.2618V28.6699ZM29.5795 26.5783H37.4976C37.3463 25.4815 36.9176 24.6143 36.2368 23.9511C35.5559 23.3134 34.6733 22.9818 33.6142 22.9818C32.5551 22.9818 31.6725 23.3134 30.9412 24.0021C30.1847 24.6908 29.7308 25.5325 29.5795 26.5783Z" fill="#F2A5B4"/>
<path d="M42.541 8.7998H45.2645V22.9563H45.3149C45.7184 22.1911 46.2983 21.63 47.0801 21.2218C47.8618 20.8137 48.694 20.6097 49.5766 20.6097C51.4426 20.6097 52.7287 21.1708 53.4852 22.2676C54.2417 23.3644 54.5947 24.8949 54.5947 26.8334V35.3784H51.8713V27.165C51.8713 25.7621 51.6696 24.7163 51.2913 24.0531C50.8878 23.39 50.0557 23.0584 48.7696 23.0584C48.2148 23.0584 47.7105 23.1349 47.2818 23.2624C46.8531 23.4155 46.5253 23.645 46.2731 23.9766C46.021 24.3082 45.8444 24.6143 45.6931 24.9204C45.5418 25.2265 45.441 25.6346 45.3653 26.1702C45.3149 26.7059 45.2645 27.1395 45.2645 27.4456C45.2645 27.7517 45.2392 28.2108 45.2392 28.7975V35.3784H42.5158V8.7998H42.541Z" fill="#F2A5B4"/>
<path d="M61.2772 21.0435V23.3646H61.3781C61.7311 22.4974 62.2355 21.8342 62.9163 21.3496C63.5972 20.8649 64.3789 20.6099 65.2615 20.6099C66.018 20.6099 66.7745 20.8394 67.5058 21.3241L66.2702 23.8238C65.8163 23.4412 65.2615 23.2371 64.6059 23.2371C63.8998 23.2371 63.3198 23.3902 62.8407 23.6707C62.3868 23.9768 62.0337 24.3849 61.832 24.9206C61.6303 25.4562 61.479 25.9919 61.4033 26.502C61.3277 27.0122 61.3024 27.6244 61.3024 28.2875V35.3275H58.579V21.0435H61.2772Z" fill="#F2A5B4"/>
<path d="M82.2829 21.0434V35.3784H79.5595V33.1338H79.5091C78.2987 34.9448 76.6848 35.8631 74.6926 35.8631C72.6248 35.8631 70.9605 35.1234 69.7501 33.6184C68.5397 32.1135 67.9093 30.277 67.9093 28.1344C67.9093 26.0938 68.5145 24.3338 69.7501 22.8544C70.9857 21.375 72.5996 20.6353 74.5918 20.6353C76.6343 20.6353 78.2734 21.579 79.4839 23.4411H79.5343V21.0434H82.2829ZM75.1213 33.4144C76.5587 33.4144 77.6682 32.9042 78.5004 31.9095C79.3073 30.9147 79.736 29.6648 79.736 28.2109C79.736 26.757 79.3326 25.5326 78.5004 24.5634C77.6682 23.5686 76.5587 23.0839 75.1465 23.0839C73.7848 23.0839 72.7005 23.5941 71.8936 24.5889C71.0866 25.5837 70.6579 26.808 70.6579 28.2109C70.6579 29.6393 71.0614 30.8637 71.8683 31.884C72.6501 32.9042 73.7344 33.4144 75.1213 33.4144Z" fill="#F2A5B4"/>
<path d="M88.5368 21.0435V22.9565H88.5872C88.9907 22.1913 89.5707 21.6302 90.3524 21.222C91.1341 20.8139 91.9663 20.6099 92.8489 20.6099C94.7149 20.6099 96.001 21.171 96.7575 22.2678C97.514 23.3646 97.867 24.8951 97.867 26.8336V35.3786H95.1436V27.1652C95.1436 25.7623 94.9419 24.7165 94.5636 24.0533C94.1601 23.3902 93.328 23.0586 92.0419 23.0586C91.4871 23.0586 90.9828 23.1351 90.5541 23.2626C90.1254 23.4157 89.7976 23.6452 89.5454 23.9768C89.2933 24.3084 89.1167 24.6145 88.9654 24.9206C88.8141 25.2267 88.7133 25.6348 88.6376 26.1704C88.5872 26.7061 88.5368 27.1397 88.5368 27.4458C88.5368 27.7519 88.5115 28.211 88.5115 28.7977V35.3786H85.7881V21.0435H88.5368Z" fill="#F2A5B4"/>
<path d="M123.109 15.2787L120.84 16.6561C119.982 15.2022 118.772 14.4879 117.183 14.4879C116.225 14.4879 115.342 14.794 114.561 15.4062C113.779 16.0184 113.375 16.8091 113.375 17.7529C113.375 19.1303 114.435 20.2526 116.553 21.0688L118.192 21.7065C120.008 22.4207 121.394 23.3135 122.378 24.3593C123.361 25.4306 123.841 26.859 123.841 28.6445C123.841 30.7361 123.134 32.4451 121.747 33.7969C120.335 35.1488 118.621 35.8375 116.553 35.8375C114.712 35.8375 113.149 35.2253 111.837 34.0265C110.526 32.8022 109.744 31.2717 109.517 29.3842L112.392 28.772C112.367 30.0219 112.795 31.0677 113.653 31.8839C114.51 32.7256 115.569 33.1338 116.805 33.1338C118.015 33.1338 119.024 32.7001 119.806 31.8074C120.613 30.9146 120.991 29.8688 120.991 28.6445C120.991 27.5222 120.638 26.6294 119.957 25.9917C119.251 25.354 118.293 24.7674 117.057 24.2572L115.494 23.594C113.93 22.9308 112.72 22.1401 111.837 21.2729C110.955 20.4056 110.526 19.2323 110.526 17.7529C110.526 15.9674 111.182 14.5135 112.518 13.4166C113.855 12.3198 115.418 11.7842 117.234 11.7842C119.856 11.7842 121.798 12.9575 123.109 15.2787Z" fill="#F2A5B4"/>
<path d="M126.64 8.7998H129.363V22.9563H129.413C129.817 22.1911 130.397 21.63 131.179 21.2218C131.96 20.8137 132.793 20.6097 133.675 20.6097C135.541 20.6097 136.827 21.1708 137.584 22.2676C138.34 23.3644 138.693 24.8949 138.693 26.8334V35.3784H135.97V27.165C135.97 25.7621 135.768 24.7163 135.39 24.0531C134.986 23.39 134.154 23.0584 132.868 23.0584C132.313 23.0584 131.809 23.1349 131.38 23.2624C130.952 23.4155 130.624 23.645 130.372 23.9766C130.12 24.3082 129.943 24.6143 129.792 24.9204C129.64 25.2265 129.54 25.6346 129.464 26.1702C129.413 26.7059 129.363 27.1395 129.363 27.4456C129.363 27.7517 129.338 28.2108 129.338 28.7975V35.3784H126.614V8.7998H126.64Z" fill="#F2A5B4"/>
<path d="M143.106 13.1359C143.459 12.7533 143.913 12.5747 144.443 12.5747C144.972 12.5747 145.401 12.7533 145.779 13.1359C146.132 13.5185 146.334 13.9776 146.334 14.4878C146.334 14.9979 146.158 15.4315 145.779 15.8141C145.426 16.1712 144.972 16.3753 144.443 16.3753C143.913 16.3753 143.485 16.1967 143.106 15.8141C142.753 15.457 142.551 14.9979 142.551 14.4878C142.551 13.9521 142.728 13.493 143.106 13.1359ZM145.804 21.0431V35.3782H143.081V21.0431H145.804Z" fill="#F2A5B4"/>
<path d="M153.067 21.0435V23.3646H153.168C153.521 22.4974 154.025 21.8342 154.706 21.3496C155.387 20.8649 156.169 20.6099 157.051 20.6099C157.808 20.6099 158.564 20.8394 159.296 21.3241L158.06 23.8238C157.606 23.4412 157.051 23.2371 156.396 23.2371C155.69 23.2371 155.11 23.3902 154.63 23.6707C154.177 23.9768 153.823 24.3849 153.622 24.9206C153.42 25.4562 153.269 25.9919 153.193 26.502C153.117 27.0122 153.092 27.6244 153.092 28.2875V35.3275H150.369V21.0435H153.067Z" fill="#F2A5B4"/>
<path d="M174.047 21.0434V35.3784H171.324V33.1338H171.274C170.063 34.9448 168.449 35.8631 166.457 35.8631C164.389 35.8631 162.725 35.1234 161.515 33.6184C160.304 32.1135 159.674 30.277 159.674 28.1344C159.674 26.0938 160.279 24.3338 161.515 22.8544C162.75 21.375 164.364 20.6353 166.356 20.6353C168.399 20.6353 170.038 21.579 171.248 23.4411H171.299V21.0434H174.047ZM166.886 33.4144C168.323 33.4144 169.433 32.9042 170.265 31.9095C171.072 30.9147 171.501 29.6648 171.501 28.2109C171.501 26.757 171.097 25.5326 170.265 24.5634C169.433 23.5686 168.323 23.0839 166.911 23.0839C165.549 23.0839 164.465 23.5941 163.658 24.5889C162.851 25.5837 162.422 26.808 162.422 28.2109C162.422 29.6393 162.826 30.8637 163.633 31.884C164.415 32.9042 165.524 33.4144 166.886 33.4144Z" fill="#F2A5B4"/>
<path d="M181.083 32.8018H190.287V35.378H175.787L185.37 23.6192H177.401V21.043H190.665L181.083 32.8018Z" fill="#F2A5B4"/>
</svg>
