<svg width="267" height="59" viewBox="0 0 267 59" fill="none" xmlns="http://www.w3.org/2000/svg">
<path d="M21.3434 20.0209L14.3582 15.5534V6.54578L25.8153 0L37.2672 6.54578V12.2623L30.2819 16.735V10.5365L25.8153 7.9814L21.3434 10.5365V20.0209Z" fill="white"/>
<path d="M37.2672 24.5088V52.4592L25.8153 58.9998L14.3582 52.4592V28.8675L21.3434 33.335V48.4685L25.8153 51.0184L30.2819 48.4685V28.9815" fill="white"/>
<path d="M51.6251 14.7292V44.2293L44.6451 48.22V19.7668L38.3667 23.7834L37.2671 24.4883L30.2818 28.9558L25.8152 31.8167L6.98528 19.7668V48.22L0 44.2293V14.7292L6.90674 10.7852L13.9392 15.2838L14.3581 15.5533L21.3433 20.0208L22.7833 20.9433L25.8152 22.8816L44.755 10.8007L51.6251 14.7292Z" fill="#891212"/>
<path d="M72.875 30.4844L64.2344 19.5938H61.2031V42H64.7188V25.6875L72.875 35.9219L81.0469 25.6875V42H84.5625V19.5938H81.5156L72.875 30.4844ZM104.062 35.4375L104.234 33.8438C104.234 31.6875 103.516 29.9062 102.078 28.4688C100.641 27.0312 98.8594 26.3125 96.7031 26.3125C94.5469 26.3125 92.7031 27.0938 91.1719 28.625C89.6406 30.1562 88.8594 32 88.8594 34.1562C88.8594 36.4062 89.6562 38.3281 91.2344 39.9219C92.8125 41.5156 94.6875 42.3125 96.8594 42.3125C97.6719 42.3125 98.4688 42.2031 99.2344 41.9688C100 41.7344 100.625 41.4844 101.094 41.2031C101.578 40.9219 102.031 40.6094 102.453 40.25C102.891 39.8906 103.172 39.6406 103.297 39.4844C103.422 39.3281 103.516 39.2188 103.578 39.125L101.5 37.0469L101.016 37.6406C100.703 38.0312 100.156 38.4219 99.375 38.8281C98.5938 39.2344 97.7656 39.4375 96.8594 39.4375C95.625 39.4375 94.5625 39.0469 93.6562 38.25C92.75 37.4688 92.2188 36.5312 92.0469 35.4375H104.062ZM96.6875 29.0469C97.875 29.0469 98.8438 29.3906 99.625 30.0781C100.406 30.7656 100.891 31.6406 101.078 32.7188H92.1875C92.4688 31.6406 93 30.7656 93.7812 30.0781C94.5625 29.3906 95.5312 29.0469 96.6875 29.0469ZM111.25 19.5938H108.062V42H111.25V33.6875C111.25 32.2812 111.609 31.1719 112.328 30.3906C113.047 29.6094 114.031 29.2031 115.25 29.2031C116.297 29.2031 117.172 29.5781 117.875 30.2969C118.578 31.0312 118.938 31.9531 118.938 33.0625V42.0156H122.141V33.0625C122.141 31 121.562 29.375 120.406 28.1562C119.25 26.9375 117.734 26.3281 115.891 26.3281C115.359 26.3281 114.828 26.3906 114.312 26.5312C113.781 26.6719 113.359 26.8281 113.016 27C112.672 27.1719 112.344 27.3594 112.047 27.5781C111.75 27.7969 111.547 27.9531 111.453 28.0469C111.359 28.1406 111.281 28.2031 111.25 28.25V19.5938ZM135.25 29.3594V26.3125H134.453C133.922 26.3125 133.391 26.3906 132.859 26.5312C132.328 26.6719 131.906 26.8281 131.562 27C131.219 27.1719 130.906 27.3594 130.594 27.5781C130.297 27.7969 130.094 27.9375 130 28.0312L129.797 28.2344V26.6406H126.594V42H129.797V33.6875C129.797 32.2812 130.172 31.1719 130.891 30.3906C131.609 29.6094 132.578 29.2031 133.797 29.2031C134.328 29.2031 134.812 29.2656 135.25 29.3594ZM150.125 42V32.0781C150.125 30.4531 149.516 29.0938 148.328 27.9844C147.125 26.875 145.594 26.3125 143.719 26.3125C142.969 26.3125 142.234 26.4219 141.531 26.625C140.828 26.8281 140.266 27.0625 139.844 27.3125C139.406 27.5781 139 27.875 138.625 28.2031C138.25 28.5312 138 28.7656 137.891 28.8906C137.781 29.0156 137.703 29.125 137.641 29.2031L139.719 31.2812L140.141 30.7344C140.391 30.3906 140.844 30.0625 141.5 29.7188C142.156 29.375 142.906 29.2031 143.719 29.2031C144.656 29.2031 145.422 29.4844 146.016 30.0312C146.609 30.5938 146.922 31.2656 146.922 32.0781L141.312 33.0469C139.922 33.2812 138.828 33.8281 138.031 34.6719C137.234 35.5312 136.844 36.5938 136.844 37.8594C136.844 39.0156 137.359 40.0625 138.391 40.9688C139.422 41.875 140.719 42.3281 142.281 42.3281C142.812 42.3281 143.328 42.25 143.859 42.125C144.375 41.9844 144.812 41.8281 145.156 41.6562C145.5 41.4844 145.812 41.2969 146.109 41.0781C146.406 40.8594 146.609 40.7188 146.703 40.625C146.797 40.5312 146.875 40.4531 146.922 40.4219V42.0156L150.125 42ZM142.766 39.4531C141.922 39.4531 141.266 39.25 140.766 38.875C140.266 38.4844 140.031 38.0312 140.031 37.5156C140.031 36.9688 140.203 36.5156 140.562 36.1562C140.906 35.7812 141.375 35.5469 141.953 35.4531L146.922 34.6562V34.9688C146.922 36.4062 146.547 37.5 145.812 38.2812C145.078 39.0625 144.062 39.4531 142.766 39.4531ZM157.812 26.6406H154.609V42H157.812V33.6875C157.812 32.2812 158.172 31.1719 158.891 30.3906C159.609 29.6094 160.594 29.2031 161.812 29.2031C162.844 29.2031 163.719 29.5781 164.422 30.2969C165.125 31.0312 165.484 31.9531 165.484 33.0625V42.0156H168.688V33.0625C168.688 31 168.109 29.375 166.953 28.1562C165.797 26.9375 164.297 26.3281 162.438 26.3281C161.906 26.3281 161.391 26.3906 160.859 26.5312C160.328 26.6719 159.906 26.8281 159.562 27C159.219 27.1719 158.906 27.3594 158.594 27.5781C158.297 27.7969 158.094 27.9531 158 28.0469L157.797 28.25L157.812 26.6406ZM191.266 35.5938C191.266 36.5938 190.859 37.4375 190.062 38.1094C189.25 38.7969 188.156 39.125 186.781 39.125C186.031 39.125 185.312 39.0469 184.641 38.8594C183.969 38.6719 183.438 38.4688 183.031 38.25C182.625 38.0312 182.234 37.7656 181.891 37.4688C181.547 37.1719 181.312 36.9688 181.219 36.8438C181.125 36.7188 181.047 36.625 181.016 36.5625L178.781 38.7969L179.094 39.1875C179.281 39.4219 179.609 39.7031 180.047 40.0469C180.484 40.3906 181 40.7344 181.594 41.0781C182.188 41.4219 182.938 41.7031 183.859 41.9531C184.781 42.2031 185.75 42.3281 186.781 42.3281C189.281 42.3281 191.234 41.7031 192.656 40.4531C194.062 39.2031 194.781 37.5781 194.781 35.6094C194.781 34.4844 194.562 33.5156 194.125 32.7031C193.688 31.8906 193.109 31.2656 192.422 30.8281C191.734 30.3906 190.969 30.0156 190.125 29.7031C189.281 29.3906 188.438 29.1406 187.594 28.9219C186.75 28.7031 185.969 28.4688 185.281 28.2031C184.594 27.9375 184.031 27.5625 183.594 27.0938C183.156 26.625 182.938 26.0469 182.938 25.3594C182.938 24.5938 183.281 23.9219 183.984 23.3438C184.688 22.7812 185.625 22.4844 186.781 22.4844C187.344 22.4844 187.891 22.5625 188.406 22.6875C188.922 22.8281 189.344 22.9844 189.656 23.1562C189.969 23.3281 190.266 23.5156 190.547 23.7344C190.828 23.9531 191 24.1094 191.078 24.2031C191.156 24.2969 191.219 24.375 191.266 24.4062L193.5 22.1562L193.25 21.8438C193.062 21.6562 192.781 21.4219 192.406 21.1406C192.031 20.8594 191.578 20.5938 191.078 20.3125C190.578 20.0312 189.938 19.7969 189.172 19.5938C188.406 19.3906 187.609 19.2812 186.781 19.2812C184.516 19.2812 182.719 19.875 181.406 21.0312C180.078 22.1875 179.422 23.6406 179.422 25.3594C179.422 26.5 179.641 27.4688 180.078 28.2812C180.516 29.0938 181.078 29.7031 181.766 30.1406C182.453 30.5781 183.234 30.9531 184.078 31.2656C184.922 31.5781 185.766 31.8438 186.609 32.0625C187.453 32.2812 188.219 32.5156 188.906 32.7812C189.594 33.0469 190.172 33.4062 190.609 33.875C191.047 34.3438 191.266 34.9062 191.266 35.5938ZM201.969 19.5938H198.781V42H201.969V33.6875C201.969 32.2812 202.328 31.1719 203.047 30.3906C203.766 29.6094 204.75 29.2031 205.969 29.2031C207.016 29.2031 207.891 29.5781 208.594 30.2969C209.297 31.0312 209.656 31.9531 209.656 33.0625V42.0156H212.859V33.0625C212.859 31 212.281 29.375 211.125 28.1562C209.969 26.9375 208.453 26.3281 206.609 26.3281C206.078 26.3281 205.547 26.3906 205.031 26.5312C204.5 26.6719 204.078 26.8281 203.734 27C203.391 27.1719 203.062 27.3594 202.766 27.5781C202.469 27.7969 202.266 27.9531 202.172 28.0469C202.078 28.1406 202 28.2031 201.969 28.25V19.5938ZM220.688 26.6406H217.484V42H220.688V26.6406ZM221.016 21.8438C221.016 21.2969 220.828 20.8438 220.469 20.4844C220.094 20.1094 219.641 19.9375 219.094 19.9375C218.531 19.9375 218.078 20.1094 217.719 20.4844C217.344 20.8438 217.172 21.2969 217.172 21.8438C217.172 22.4062 217.344 22.8594 217.719 23.2188C218.078 23.5938 218.531 23.7656 219.094 23.7656C219.641 23.7656 220.094 23.5938 220.469 23.2188C220.828 22.8594 221.016 22.4062 221.016 21.8438ZM233.969 29.3594V26.3125H233.172C232.641 26.3125 232.109 26.3906 231.578 26.5312C231.047 26.6719 230.625 26.8281 230.281 27C229.938 27.1719 229.625 27.3594 229.312 27.5781C229.016 27.7969 228.812 27.9375 228.719 28.0312L228.516 28.2344V26.6406H225.312V42H228.516V33.6875C228.516 32.2812 228.891 31.1719 229.609 30.3906C230.328 29.6094 231.297 29.2031 232.516 29.2031C233.047 29.2031 233.531 29.2656 233.969 29.3594ZM248.844 42V32.0781C248.844 30.4531 248.234 29.0938 247.047 27.9844C245.844 26.875 244.312 26.3125 242.438 26.3125C241.688 26.3125 240.953 26.4219 240.25 26.625C239.547 26.8281 238.984 27.0625 238.562 27.3125C238.125 27.5781 237.719 27.875 237.344 28.2031C236.969 28.5312 236.719 28.7656 236.609 28.8906C236.5 29.0156 236.422 29.125 236.359 29.2031L238.438 31.2812L238.859 30.7344C239.109 30.3906 239.562 30.0625 240.219 29.7188C240.875 29.375 241.625 29.2031 242.438 29.2031C243.375 29.2031 244.141 29.4844 244.734 30.0312C245.328 30.5938 245.641 31.2656 245.641 32.0781L240.031 33.0469C238.641 33.2812 237.547 33.8281 236.75 34.6719C235.953 35.5312 235.562 36.5938 235.562 37.8594C235.562 39.0156 236.078 40.0625 237.109 40.9688C238.141 41.875 239.438 42.3281 241 42.3281C241.531 42.3281 242.047 42.25 242.578 42.125C243.094 41.9844 243.531 41.8281 243.875 41.6562C244.219 41.4844 244.531 41.2969 244.828 41.0781C245.125 40.8594 245.328 40.7188 245.422 40.625C245.516 40.5312 245.594 40.4531 245.641 40.4219V42.0156L248.844 42ZM241.484 39.4531C240.641 39.4531 239.984 39.25 239.484 38.875C238.984 38.4844 238.75 38.0312 238.75 37.5156C238.75 36.9688 238.922 36.5156 239.281 36.1562C239.625 35.7812 240.094 35.5469 240.672 35.4531L245.641 34.6562V34.9688C245.641 36.4062 245.266 37.5 244.531 38.2812C243.797 39.0625 242.781 39.4531 241.484 39.4531ZM264.844 26.6406H252.688V29.5156H260.844L252.375 39.125V42H265.172V39.125H256.375L264.844 29.5156V26.6406Z" fill="white"/>
</svg>
